<svg width="24" height="24" viewBox="0 0 24 24" fill="none" xmlns="http://www.w3.org/2000/svg">
<path d="M11.8223 9.70703H13.3423V11.826H11.8223V9.70703Z" fill="url(#paint0_linear_3648_20403)"/>
<path d="M3.92958 4.15044C4.25596 4.1517 4.57106 4.27057 4.81695 4.48544C5.06268 4.70016 5.22289 4.9963 5.268 5.31973C5.63932 4.96203 5.85215 4.4704 5.85872 3.95485C5.86546 3.43914 5.66531 2.94235 5.30324 2.5751C4.94115 2.208 4.44718 2.00113 3.93146 2.00049C3.41575 2.00002 2.92133 2.20581 2.55845 2.57229C2.19557 2.93878 1.9945 3.43509 2.00011 3.9508C2.0056 4.46636 2.21734 4.95845 2.58803 5.31692C2.63439 4.99383 2.79539 4.69813 3.04156 4.48392C3.28791 4.26967 3.60318 4.15143 3.92954 4.15049L3.92958 4.15044ZM3.92958 2.79278C4.07147 2.79278 4.19942 2.87829 4.25361 3.00938C4.30795 3.14046 4.27804 3.29128 4.17765 3.39167C4.07727 3.49206 3.92645 3.52197 3.79536 3.46762C3.66428 3.41343 3.57877 3.28548 3.57877 3.14359C3.57877 2.94987 3.73585 2.79278 3.92958 2.79278Z" fill="url(#paint1_linear_3648_20403)"/>
<path d="M18.3538 5.64617C17.366 4.6584 16.0262 4.10352 14.6294 4.10352C13.2324 4.10352 11.8927 4.6584 10.905 5.64617C9.91719 6.63393 9.3623 7.97359 9.3623 9.37058C9.3623 10.7674 9.91719 12.1072 10.905 13.095C11.8927 14.0828 13.2324 14.6377 14.6294 14.6377C16.0262 14.6377 17.366 14.0828 18.3538 13.095C19.3386 12.1057 19.8916 10.7665 19.8916 9.37058C19.8916 7.97455 19.3386 6.63549 18.3538 5.64617ZM17.436 12.0017C17.436 12.0482 17.4175 12.0928 17.3847 12.1257C17.3518 12.1586 17.3071 12.1771 17.2606 12.1771H11.6476C11.5507 12.1771 11.4722 12.0986 11.4722 12.0017V9.53188C11.4722 9.43509 11.5507 9.35647 11.6476 9.35647H13.3431V7.96028C13.3431 7.86349 13.4216 7.78487 13.5185 7.78487H15.2143V6.38868C15.2143 6.29174 15.2929 6.21328 15.3897 6.21328H17.2606C17.3071 6.21328 17.3518 6.23176 17.3847 6.26464C17.4176 6.29753 17.436 6.34217 17.436 6.38868V12.0017Z" fill="url(#paint2_linear_3648_20403)"/>
<path d="M21.0738 21.7135V21.6492C21.0738 21.2889 20.8815 20.9559 20.5695 20.7758C20.2574 20.5956 19.8729 20.5956 19.5609 20.7758C19.2488 20.9559 19.0566 21.2889 19.0566 21.6492V21.7113C19.3592 21.8997 19.7085 21.9997 20.0649 22.0001C20.4213 22.0004 20.7707 21.9012 21.0738 21.7135Z" fill="url(#paint3_linear_3648_20403)"/>
<path d="M15.5645 6.56445H17.0845V11.8266H15.5645V6.56445Z" fill="url(#paint4_linear_3648_20403)"/>
<path d="M13.6934 8.13574H15.2138V11.8263H13.6934V8.13574Z" fill="url(#paint5_linear_3648_20403)"/>
<path d="M5.58402 16.5485L2.52005 19.6121C2.26838 19.8647 2.12695 20.2066 2.12695 20.5632C2.12695 20.9198 2.26837 21.2617 2.52005 21.5144C2.77642 21.7588 3.11723 21.8952 3.47145 21.8952C3.82571 21.8952 4.16634 21.7588 4.42285 21.5144L7.48574 18.4521C7.65128 18.2856 7.65128 18.0169 7.48574 17.8504L6.2302 16.5951C6.15455 16.4973 6.04085 16.4363 5.9176 16.4274C5.79419 16.4185 5.67297 16.4625 5.58401 16.5485L5.58402 16.5485Z" fill="url(#paint6_linear_3648_20403)"/>
<path d="M9.84908 15.4287C9.4425 15.1042 9.06791 14.7416 8.72993 14.3462L6.60156 16.4714L7.70271 17.5723L9.84908 15.4287Z" fill="url(#paint7_linear_3648_20403)"/>
<path d="M21.9962 9.37084C22.0771 5.4112 18.5887 1.92281 14.6291 2.00379C9.68607 1.83512 5.8965 7.3225 7.68584 11.8265H4.07248C4.01939 11.6779 3.90255 11.5611 3.75393 11.508V5.85008C4.16753 5.89284 4.58349 5.79652 4.93619 5.57617C4.95451 5.2974 4.85663 5.02349 4.66572 4.81942C4.47481 4.61551 4.2081 4.49946 3.92869 4.4993C3.64929 4.49899 3.38227 4.61426 3.19106 4.81785C2.99969 5.0216 2.90133 5.2952 2.91903 5.57396C3.06984 5.66714 3.23272 5.73919 3.40311 5.78805V11.5081C3.23177 11.5674 3.10304 11.7107 3.06232 11.8874C3.02176 12.0641 3.07485 12.2493 3.20311 12.3775C3.33122 12.5057 3.51649 12.5588 3.69317 12.5182C3.86982 12.4775 4.01313 12.3488 4.07248 12.1775H7.81426C8.187 13.0747 8.73278 13.8897 9.42045 14.5758C10.1083 15.2621 10.9246 15.806 11.8226 16.1767V19.5761C11.6514 19.6355 11.5227 19.7786 11.4821 19.9553C11.4414 20.132 11.4945 20.3169 11.6226 20.4452C11.7507 20.5735 11.9356 20.6267 12.1123 20.5863C12.289 20.5457 12.4324 20.4173 12.4919 20.2461H18.1462C18.1884 20.7053 18.3937 21.1341 18.7251 21.4547C18.7858 21.0196 19.054 20.6413 19.4443 20.4399C19.8344 20.2383 20.2983 20.2388 20.6881 20.4412C21.0778 20.6435 21.3452 21.0225 21.405 21.4576C21.8611 21.0191 22.0732 20.3849 21.9728 19.7604C21.8724 19.1358 21.4722 18.6001 20.9018 18.3267C20.3313 18.0533 19.6631 18.0768 19.1133 18.3897C18.5635 18.7028 18.202 19.2653 18.1459 19.8954H12.4921C12.439 19.7468 12.3221 19.6299 12.1735 19.5768V16.3098C16.6992 18.0771 22.1618 14.3175 21.9962 9.3709L21.9962 9.37084ZM20.0667 18.9306C20.2086 18.9306 20.3365 19.0161 20.3907 19.1472C20.4451 19.2782 20.4152 19.4291 20.3148 19.5294C20.2144 19.6298 20.0636 19.6598 19.9325 19.6054C19.8014 19.5512 19.7159 19.4233 19.7159 19.2814C19.7159 19.0876 19.873 18.9306 20.0667 18.9306ZM10.6569 13.3436C9.6034 12.2901 9.01139 10.8612 9.01139 9.37116C9.01123 7.88115 9.60308 6.45221 10.6568 5.39853C11.7103 4.34501 13.1392 3.753 14.6292 3.753C16.1192 3.753 17.5482 4.34501 18.6017 5.39853C19.6554 6.45221 20.2472 7.88115 20.2471 9.37116C20.2471 10.8612 19.6551 12.2901 18.6015 13.3436C17.5463 14.3939 16.118 14.9837 14.6292 14.9837C13.1405 14.9837 11.7122 14.3939 10.6569 13.3436Z" fill="url(#paint8_linear_3648_20403)"/>
<defs>
<linearGradient id="paint0_linear_3648_20403" x1="11.8062" y1="9.68462" x2="13.8135" y2="11.1245" gradientUnits="userSpaceOnUse">
<stop stop-color="#FC907E"/>
<stop offset="0.99" stop-color="#9F6EED"/>
</linearGradient>
<linearGradient id="paint1_linear_3648_20403" x1="1.9593" y1="1.96539" x2="5.24135" y2="5.78083" gradientUnits="userSpaceOnUse">
<stop stop-color="#FC907E"/>
<stop offset="0.99" stop-color="#9F6EED"/>
</linearGradient>
<linearGradient id="paint2_linear_3648_20403" x1="9.25126" y1="3.99213" x2="19.7857" y2="14.5211" gradientUnits="userSpaceOnUse">
<stop stop-color="#FC907E"/>
<stop offset="0.99" stop-color="#9F6EED"/>
</linearGradient>
<linearGradient id="paint3_linear_3648_20403" x1="19.0354" y1="20.6263" x2="20.2955" y2="22.4959" gradientUnits="userSpaceOnUse">
<stop stop-color="#FC907E"/>
<stop offset="0.99" stop-color="#9F6EED"/>
</linearGradient>
<linearGradient id="paint4_linear_3648_20403" x1="15.5484" y1="6.50881" x2="18.3544" y2="7.31932" gradientUnits="userSpaceOnUse">
<stop stop-color="#FC907E"/>
<stop offset="0.99" stop-color="#9F6EED"/>
</linearGradient>
<linearGradient id="paint5_linear_3648_20403" x1="13.6773" y1="8.09672" x2="16.2769" y2="9.1676" gradientUnits="userSpaceOnUse">
<stop stop-color="#FC907E"/>
<stop offset="0.99" stop-color="#9F6EED"/>
</linearGradient>
<linearGradient id="paint6_linear_3648_20403" x1="2.06913" y1="16.3684" x2="7.53823" y2="21.8512" gradientUnits="userSpaceOnUse">
<stop stop-color="#FC907E"/>
<stop offset="0.99" stop-color="#9F6EED"/>
</linearGradient>
<linearGradient id="paint7_linear_3648_20403" x1="6.56731" y1="14.3121" x2="9.7934" y2="17.5594" gradientUnits="userSpaceOnUse">
<stop stop-color="#FC907E"/>
<stop offset="0.99" stop-color="#9F6EED"/>
</linearGradient>
<linearGradient id="paint8_linear_3648_20403" x1="2.71574" y1="1.79425" x2="22.1702" y2="20.873" gradientUnits="userSpaceOnUse">
<stop stop-color="#FC907E"/>
<stop offset="0.99" stop-color="#9F6EED"/>
</linearGradient>
</defs>
</svg>
