<svg width="502" height="382" viewBox="0 0 502 382" fill="none" xmlns="http://www.w3.org/2000/svg">
<g clip-path="url(#clip0_6_416)">
<path d="M288.22 273.772C329.511 273.772 362.984 240.3 362.984 199.009C362.984 157.718 329.511 124.246 288.22 124.246C246.93 124.246 213.457 157.718 213.457 199.009C213.457 240.3 246.93 273.772 288.22 273.772Z" fill="#F5F1FD"/>
<path d="M271.097 38.1858C276.51 37.377 282.618 36.8719 288.039 37.32C293.725 37.7313 299.385 38.4555 304.992 39.4893C312.869 41.0258 320.623 43.5522 327.361 47.7592C330.751 49.8756 334.032 52.6523 335.065 56.4053C335.827 59.1737 335.245 62.1659 333.97 64.7544C332.695 67.3429 330.768 69.5816 328.749 71.69C319.225 81.6402 307.324 89.2566 294.863 95.5432C298.711 88.1951 300.638 79.993 300.465 71.7001C305.599 68.846 310.814 65.9305 314.859 61.7641C315.628 60.9722 316.385 60.0616 316.473 58.9824C316.571 57.7789 315.809 56.6648 314.939 55.7927C312.985 53.8327 310.39 52.5887 307.79 51.5244C295.988 46.6925 282.98 48.3327 270.291 46.5072C270.75 44.5771 271.097 38.1858 271.097 38.1858Z" fill="#FFD9D2"/>
<path d="M255.692 38.0897C250.254 37.4805 241.032 38.3979 235.631 39.035C229.962 39.6452 224.332 40.5646 218.764 41.7893C210.947 43.593 203.287 46.3738 196.701 50.7847C193.389 53.0037 190.208 55.8735 189.308 59.6313C188.645 62.4031 189.331 65.349 190.697 67.8701C192.063 70.3911 194.068 72.5421 196.159 74.5606C206.029 84.0869 218.192 91.2147 230.867 97.0041C226.764 89.8646 224.547 81.7975 224.426 73.5639C219.195 70.9169 213.88 68.212 209.69 64.2251C208.894 63.4673 208.105 62.5914 207.979 61.5246C207.839 60.3348 208.561 59.2031 209.399 58.3075C211.283 56.2947 213.833 54.9689 216.393 53.8212C228.017 48.6105 245.007 48.1455 257.623 45.884C257.097 43.9867 255.699 38.0905 255.692 38.0897Z" fill="#FFD9D2"/>
<path d="M161.941 52.7452C161.941 52.7452 123.869 -9.28108 53.2565 16.1185C18.1599 28.7429 13.5369 71.075 15.8642 100.774C18.8783 139.239 42.7202 174.975 70.8473 201.384C102.313 230.929 149.627 262.212 229.402 251.073C338.41 235.853 382.298 279.021 396.799 299.884C419.477 332.509 451.221 365.379 490.731 375.594C558.706 393.169 620.16 376.525 659.921 301.389C716.318 194.818 870.324 221.715 870.324 221.715" stroke="#5F428D" stroke-miterlimit="10" stroke-dasharray="5 7"/>
<path d="M110.742 273.818L144.87 279.392L178.937 219.931L182.653 164.037C182.653 164.037 166.564 175.639 158.497 187.103C147.105 203.292 110.742 273.818 110.742 273.818Z" fill="#7E59BE"/>
<path d="M298.136 72.2368C298.966 96.728 283.542 117.128 263.685 117.801C243.828 118.474 227.058 99.1659 226.228 74.6747L298.136 72.2368Z" fill="#9F6EED"/>
<path d="M281.642 72.796L298.136 72.2368C298.136 72.2368 299.275 91.9333 287.846 104.999C287.846 104.999 281.502 113.04 275.005 115.139C275.005 115.139 286.621 99.0641 281.642 72.796Z" fill="#8E63D5"/>
<path d="M213.36 139.601C213.36 139.601 268.567 119.621 283.289 124.353C298.011 129.086 296.96 159.028 288.021 164.037C280.565 168.215 257.007 172.201 229.865 176.766C212.287 179.722 199.471 195.217 200.158 213.029C200.174 213.435 200.193 213.847 200.215 214.263C201.792 244.233 213.982 287.326 213.982 287.326L180.354 294.183C177.364 281.618 172.965 272.361 168.27 248.96C164.552 230.431 163.118 210.709 165.145 191.8C166.218 181.794 169.236 171.782 175.348 163.788C184.467 151.86 199.567 144.6 213.36 139.601Z" fill="#9F6DEC"/>
<path d="M216.913 283.701C217.043 283.667 217.179 283.661 217.312 283.685C217.444 283.709 217.569 283.763 217.679 283.841C217.788 283.919 217.879 284.021 217.944 284.139C218.009 284.257 218.048 284.387 218.056 284.522C218.209 286.799 218.402 291.872 218.411 292.315C218.571 300.486 219.893 308.548 221.315 316.578C222.535 323.466 223.756 330.354 224.976 337.242C225.317 339.171 225.659 341.099 226.004 343.046C226.089 343.527 225.982 344.022 225.705 344.425C225.429 344.828 225.007 345.106 224.528 345.201L174.202 355.165C173.877 355.23 173.543 355.228 173.219 355.161C172.894 355.094 172.587 354.963 172.314 354.775C172.042 354.587 171.81 354.346 171.632 354.067C171.454 353.788 171.333 353.476 171.278 353.15C170.394 347.944 169.272 343.397 170.802 338.26C172.251 333.397 175.398 329.216 179.67 326.478C181.589 325.199 183.691 324.219 185.905 323.572C185.905 323.572 194.085 321.392 198.156 323.463C197.616 323.148 193.098 320.634 188.918 320.997C185.022 312.526 181.95 303.699 179.744 294.639C179.684 294.384 179.726 294.116 179.861 293.891C179.995 293.667 180.212 293.504 180.466 293.437C185.726 292.031 211.443 285.162 216.913 283.701Z" fill="#FC907E"/>
<path d="M199.229 288.462L225.079 337.252C225.079 337.252 219.15 304.432 218.832 298.378C218.514 292.325 218.274 286.574 218.274 286.574C218.258 286.173 218.258 285.773 218.223 285.373C218.221 284.977 218.172 284.582 218.077 284.197C217.975 283.898 217.717 283.773 217.291 283.677C217.141 283.644 217.101 283.703 216.942 283.739C216.458 283.849 216.028 283.971 215.575 284.095C215.499 284.116 215.423 284.137 215.348 284.157L199.229 288.462Z" fill="#FF7E69"/>
<path d="M145.92 278.42C146.05 278.454 146.171 278.516 146.274 278.603C146.377 278.69 146.46 278.798 146.516 278.92C146.572 279.043 146.6 279.176 146.599 279.311C146.597 279.445 146.566 279.578 146.507 279.699C145.511 281.752 143.166 286.255 142.954 286.644C139.045 293.821 136.2 301.479 133.458 309.159C131.105 315.747 128.753 322.335 126.4 328.923C125.742 330.768 125.083 332.612 124.419 334.475C124.254 334.934 123.915 335.311 123.476 335.524C123.037 335.737 122.532 335.77 122.068 335.615L73.4157 319.34C73.1017 319.235 72.812 319.068 72.5636 318.849C72.3152 318.63 72.1132 318.364 71.9695 318.066C71.8259 317.767 71.7434 317.443 71.727 317.113C71.7107 316.782 71.7607 316.452 71.8743 316.141C73.6851 311.18 74.9632 306.675 78.8375 302.97C82.505 299.464 87.3095 297.391 92.3765 297.129C94.6773 296.968 96.9891 297.158 99.2327 297.693C99.2329 297.693 107.418 299.852 109.929 303.667C109.616 303.127 106.936 298.704 103.126 296.949C103.938 287.66 105.642 278.471 108.214 269.508C108.288 269.257 108.457 269.045 108.686 268.916C108.914 268.788 109.183 268.754 109.436 268.821C114.702 270.206 140.444 276.979 145.92 278.42Z" fill="#FC907E"/>
<path d="M128.2 273.794L126.486 328.983C126.486 328.983 137.594 297.536 140.317 292.12C143.039 286.703 145.68 281.589 145.68 281.589C145.864 281.232 146.062 280.885 146.23 280.52C146.425 280.175 146.578 279.808 146.686 279.427C146.745 279.116 146.583 278.88 146.26 278.586C146.147 278.482 146.083 278.514 145.927 278.467C145.452 278.322 145.018 278.215 144.562 278.099C144.487 278.079 144.411 278.059 144.335 278.04L128.2 273.794Z" fill="#FF7E69"/>
<path d="M217.35 120.66H64.1826C62.612 120.66 61.3387 121.933 61.3387 123.504V124.669C61.3387 126.239 62.612 127.513 64.1826 127.513H217.35C218.92 127.513 220.194 126.239 220.194 124.669V123.504C220.194 121.933 218.92 120.66 217.35 120.66Z" fill="#402D5F"/>
<path d="M254.593 37.3456C252.245 39.7255 250.855 42.5912 249.551 45.4076C248.222 48.2045 247.208 51.1408 246.529 54.1621C246.021 56.6055 244.52 59.3835 246.53 61.2285C250.46 64.8353 258.919 64.2118 263.786 63.9893C267.229 63.832 271.003 63.5224 273.865 61.7586C275.148 61.0492 276.102 59.8638 276.521 58.4579C276.755 57.327 276.748 56.1595 276.501 55.0315C275.718 50.5557 273.517 46.3518 270.895 42.4093C268.949 39.4844 266.498 35.2135 261.932 34.6362C258.759 34.235 256.407 35.5075 254.593 37.3456Z" fill="#FFD9D2"/>
<path d="M255.947 44.2066C254.758 44.9018 253.473 45.4193 252.134 45.7428C250.487 46.0309 248.792 45.7863 247.293 45.0447C245.795 44.3031 244.572 43.103 243.803 41.6189C243.693 41.4465 243.621 41.2524 243.593 41.0499C243.564 40.8474 243.58 40.6411 243.638 40.4451C243.756 40.2617 243.911 40.1045 244.093 39.9833C244.274 39.8621 244.479 39.7795 244.693 39.7405C249.876 38.045 254.751 35.5249 259.131 32.2773C260.437 31.3081 261.732 30.2564 263.279 29.7526C266.226 28.7925 269.562 30.083 271.728 32.2992C273.895 34.5155 275.079 37.5064 275.912 40.4919C276.894 44.0227 277.47 47.6539 277.63 51.3152C277.777 53.253 277.625 55.2019 277.177 57.0931C276.8 58.4848 276.164 60.4043 274.71 60.9867C274.507 61.0843 274.278 61.1144 274.057 61.0727C273.599 60.9505 273.435 60.395 273.355 59.9272C272.869 57.0788 272.603 54.1925 272.001 51.3663C271.399 48.5401 270.435 45.7363 268.703 43.4231C268.138 42.5766 267.35 41.903 266.425 41.4766C265.318 41.0417 264.071 41.2107 262.911 41.4725C261.049 41.8926 259.244 42.5326 257.534 43.3791C257.002 43.6426 256.476 43.9271 255.947 44.2066Z" fill="#402D5F"/>
<path d="M270.406 48.4575C270.406 48.4575 272.944 46.4132 273.664 48.2051C274.092 49.1799 274.251 50.2514 274.126 51.3086C274.126 51.3086 273.602 53.5775 272.433 53.7105L270.406 48.4575Z" fill="#FFD9D2"/>
<path d="M380.327 356.83L38.4795 355.88" stroke="#ECE1FB" stroke-width="3" stroke-miterlimit="10"/>
<path d="M92.5298 106.869L84.5077 52.7627H177.527L185.89 106.869H92.5298Z" stroke="#312147" stroke-miterlimit="10"/>
<path d="M123.869 120.788L125.152 106.869H150.917L150.061 120.661L123.869 120.788Z" fill="#B28AF0"/>
<path d="M90.2424 56.8716L96.4985 100.664H180.369L173.331 56.8716H90.2424Z" fill="#ECE1FB"/>
<path d="M289.217 172.68L231.069 182.883C229.112 183.226 227.804 185.091 228.147 187.047L228.147 187.047C228.491 189.004 230.355 190.312 232.312 189.969L290.461 179.766C292.417 179.422 293.725 177.558 293.382 175.601C293.039 173.644 291.174 172.336 289.217 172.68Z" fill="#402D5F"/>
<path d="M264.733 184.961C264.733 183.89 263.865 183.021 262.793 183.021C261.722 183.021 260.854 183.89 260.854 184.961V347.721C260.854 348.793 261.722 349.661 262.793 349.661C263.865 349.661 264.733 348.793 264.733 347.721V184.961Z" fill="#402D5F"/>
<path d="M262.793 351.093C277.871 351.093 290.094 350.022 290.094 348.7C290.094 347.378 277.871 346.307 262.793 346.307C247.716 346.307 235.493 347.378 235.493 348.7C235.493 350.022 247.716 351.093 262.793 351.093Z" fill="#402D5F"/>
<path d="M76.6827 89.6092C75.997 89.6092 75.3393 89.8816 74.8544 90.3665C74.3695 90.8513 74.0971 91.509 74.0971 92.1947V95.0748C74.0971 95.2005 74.0723 95.325 74.0242 95.4411C73.9762 95.5572 73.9057 95.6627 73.8168 95.7516C73.7279 95.8405 73.6224 95.911 73.5063 95.9591C73.3902 96.0072 73.2657 96.0319 73.14 96.0319H71.9579V90.785C71.9585 90.3294 71.8692 89.8781 71.6952 89.457C71.5213 89.0359 71.266 88.6532 70.944 88.3309C70.6221 88.0085 70.2397 87.7528 69.8188 87.5783C69.3979 87.4038 68.9468 87.314 68.4911 87.314C68.0355 87.314 67.5844 87.4038 67.1635 87.5783C66.7426 87.7528 66.3602 88.0085 66.0383 88.3309C65.7163 88.6532 65.461 89.0359 65.2871 89.457C65.1131 89.8781 65.0238 90.3294 65.0244 90.785V101.829H64.3583C63.9534 101.829 63.5652 101.668 63.2789 101.382C62.9926 101.095 62.8317 100.707 62.8317 100.302V97.9916C62.8317 97.6521 62.7648 97.3159 62.6349 97.0022C62.505 96.6885 62.3146 96.4035 62.0745 96.1634C61.8344 95.9233 61.5494 95.7328 61.2357 95.6029C60.922 95.473 60.5858 95.4061 60.2463 95.4061C59.9068 95.4061 59.5706 95.473 59.2569 95.6029C58.9432 95.7328 58.6582 95.9233 58.4181 96.1634C58.178 96.4035 57.9876 96.6885 57.8577 97.0022C57.7277 97.3159 57.6609 97.6521 57.6609 97.9916V101.829C57.6609 102.508 57.7946 103.18 58.0544 103.808C58.3143 104.435 58.6952 105.005 59.1753 105.485C59.6555 105.965 60.2255 106.346 60.8529 106.606C61.4802 106.866 62.1526 107 62.8317 107H65.0244V113.595H71.9579V101.203H74.0971C75.4685 101.203 76.7838 100.658 77.7535 99.6884C78.7233 98.7186 79.2681 97.4034 79.2681 96.0319V92.1947C79.2681 91.8552 79.2012 91.519 79.0713 91.2053C78.9414 90.8916 78.751 90.6066 78.5109 90.3665C78.2708 90.1264 77.9858 89.9359 77.6721 89.806C77.3584 89.6761 77.0222 89.6092 76.6827 89.6092V89.6092Z" fill="#CFB8F5"/>
<path d="M68.4378 113.596V87.3213C67.528 87.3349 66.66 87.7059 66.0214 88.354C65.3827 89.0022 65.0246 89.8755 65.0244 90.7854V101.829H64.3583C63.9534 101.829 63.5652 101.668 63.2789 101.382C62.9926 101.096 62.8317 100.708 62.8317 100.303V97.992C62.8317 97.6525 62.7648 97.3163 62.6349 97.0026C62.505 96.6889 62.3146 96.4039 62.0745 96.1638C61.8344 95.9237 61.5494 95.7332 61.2357 95.6033C60.922 95.4734 60.5858 95.4065 60.2463 95.4065C59.9068 95.4065 59.5706 95.4734 59.2569 95.6033C58.9432 95.7332 58.6582 95.9237 58.4181 96.1638C58.178 96.4039 57.9876 96.6889 57.8577 97.0026C57.7277 97.3163 57.6609 97.6525 57.6609 97.992V101.829C57.6609 102.508 57.7946 103.181 58.0544 103.808C58.3143 104.435 58.6952 105.005 59.1753 105.486C59.6555 105.966 60.2255 106.347 60.8529 106.607C61.4802 106.866 62.1526 107 62.8317 107H65.0244V113.596H68.4378Z" fill="#B28AF0"/>
<path d="M70.6121 120.788H66.2631C65.2925 120.788 64.3617 120.402 63.6754 119.716C62.9891 119.029 62.6035 118.098 62.6035 117.128V109.119H74.2719V117.128C74.2718 118.099 73.8862 119.029 73.1999 119.716C72.5135 120.402 71.5827 120.788 70.6121 120.788V120.788Z" fill="#FC907E"/>
<path d="M32.5324 148.728C30.2021 150.462 27.8718 152.196 25.5415 153.929C25.1635 154.21 24.6893 154.33 24.2232 154.261C23.7572 154.193 23.3374 153.942 23.0561 153.564C20.74 150.452 18.4242 147.339 16.1086 144.226C15.8278 143.848 15.7085 143.374 15.777 142.908C15.8455 142.442 16.0962 142.022 16.474 141.741C21.1345 138.273 25.7951 134.806 30.4558 131.339C30.8338 131.058 31.3079 130.938 31.7739 131.007C32.24 131.075 32.6597 131.326 32.9411 131.704C35.2571 134.816 37.5729 137.929 39.8885 141.042C40.1694 141.42 40.2888 141.894 40.2203 142.36C40.1518 142.826 39.9011 143.246 39.5233 143.527C37.193 145.261 34.8627 146.995 32.5324 148.728ZM16.3407 142.656L16.3709 142.73C16.4234 142.723 16.4763 142.721 16.5292 142.721C17.6947 142.81 18.8603 142.899 20.0257 142.989C22.0285 143.144 24.0313 143.301 26.0339 143.459C26.6269 143.521 27.2255 143.502 27.8134 143.403C28.076 143.37 28.3266 143.273 28.5428 143.12C28.759 142.968 28.934 142.764 29.0523 142.527C29.138 142.35 29.2191 142.171 29.2923 141.989C29.5101 141.333 29.6684 140.658 29.7653 139.974C29.9162 139.239 30.0523 138.502 30.1963 137.766C30.3891 136.78 30.5826 135.794 30.7769 134.809C30.9254 134.052 31.0738 133.296 31.222 132.539C31.2878 132.202 31.3506 131.864 31.4176 131.512C31.188 131.522 30.9665 131.599 30.7811 131.735C26.1068 135.212 21.4338 138.691 16.7619 142.172C16.6046 142.318 16.4633 142.48 16.3407 142.656V142.656ZM24.5724 153.759C24.8223 153.741 25.0616 153.651 25.2618 153.501C29.9045 150.045 34.5479 146.59 39.192 143.135C39.222 143.113 39.2535 143.093 39.2813 143.068C39.4538 142.925 39.5782 142.733 39.6374 142.517L30.0853 141.166C29.985 141.495 29.885 141.848 29.77 142.195C29.6396 142.691 29.3518 143.132 28.9499 143.451C28.548 143.771 28.0535 143.951 27.5404 143.966C27.1492 143.995 26.7567 144.008 26.3437 144.03C25.7573 147.251 25.1668 150.494 24.5724 153.759ZM16.283 143.221C16.2868 143.479 16.3732 143.729 16.5296 143.934C17.5152 145.26 18.5012 146.586 19.4877 147.911C20.811 149.689 22.1344 151.468 23.4579 153.247C23.6073 153.452 23.8178 153.605 24.0593 153.683L25.8293 143.961L16.283 143.221ZM30.1692 140.617L39.7146 141.995C39.6976 141.753 39.6108 141.522 39.4646 141.329C38.1097 139.508 36.7549 137.687 35.4002 135.866C34.4461 134.584 33.4919 133.301 32.5375 132.019C32.3877 131.814 32.1764 131.661 31.9342 131.584L30.1692 140.617Z" fill="url(#paint0_linear_6_416)"/>
<path d="M16.3406 142.655C16.4632 142.48 16.6045 142.318 16.7619 142.172C21.4316 138.689 26.1047 135.21 30.781 131.735C30.9664 131.599 31.1879 131.521 31.4175 131.512C31.3506 131.864 31.2878 132.202 31.2219 132.539C31.0744 133.296 30.926 134.052 30.7768 134.809C30.5832 135.794 30.3897 136.78 30.1962 137.766C30.0523 138.502 29.9161 139.239 29.7653 139.974C29.6683 140.658 29.51 141.333 29.2922 141.989C29.2191 142.171 29.1379 142.35 29.0522 142.527C28.9339 142.764 28.7589 142.968 28.5427 143.12C28.3265 143.273 28.0759 143.37 27.8132 143.402C27.2254 143.502 26.6268 143.521 26.0338 143.459C24.0313 143.3 22.0285 143.143 20.0256 142.989C18.8602 142.898 17.6947 142.809 16.529 142.721C16.4762 142.721 16.4233 142.723 16.3708 142.73L16.3406 142.655Z" fill="white"/>
<path d="M24.5723 153.76C25.1669 150.494 25.7573 147.25 26.3436 144.03C26.7566 144.009 27.1491 143.995 27.5403 143.966C28.0533 143.951 28.5479 143.771 28.9498 143.452C29.3517 143.133 29.6394 142.692 29.7699 142.195C29.8849 141.848 29.9849 141.495 30.0852 141.167L39.6372 142.517C39.578 142.733 39.4537 142.925 39.2812 143.068C39.2534 143.093 39.2218 143.113 39.1919 143.136C34.5482 146.59 29.9048 150.046 25.2617 153.501C25.0615 153.652 24.8222 153.742 24.5723 153.76Z" fill="white"/>
<path d="M16.2828 143.221L25.8291 143.961L24.0591 153.683C23.8176 153.605 23.6071 153.452 23.4577 153.246C22.1338 151.468 20.8104 149.69 19.4875 147.911C18.5014 146.585 17.5153 145.26 16.5294 143.934C16.373 143.729 16.2866 143.479 16.2828 143.221V143.221Z" fill="white"/>
<path d="M30.1691 140.616L31.934 131.583C32.1763 131.661 32.3876 131.813 32.5374 132.019C33.4924 133.301 34.4466 134.583 35.4 135.866C36.7548 137.687 38.1096 139.508 39.4644 141.329C39.6106 141.522 39.6975 141.753 39.7144 141.995L30.1691 140.616Z" fill="white"/>
<path d="M20.0809 68.1272L0 78.5962L11.5858 100.819L31.6667 90.3503L20.0809 68.1272Z" fill="url(#paint1_linear_6_416)"/>
<path d="M42.0821 18.1646H27.8015V37.9586H42.0821V18.1646Z" fill="#C4A8F4"/>
<path d="M91.9511 0H66.5853V29.431H91.9511V0Z" fill="#DAC5F8"/>
<path d="M71.235 5.16943H87.8579" stroke="black" stroke-miterlimit="10"/>
<path d="M71.235 8.64014H87.8579" stroke="black" stroke-miterlimit="10"/>
<path d="M71.235 12.1855L87.8579 12.1856" stroke="black" stroke-miterlimit="10"/>
<path d="M71.235 16.1182H87.8579" stroke="black" stroke-miterlimit="10"/>
<path d="M294.885 95.5438C297.917 94.0137 300.916 92.4032 303.856 90.7011C303.618 85.2863 302.854 74.5734 300.487 71.7007C300.66 79.9937 298.733 88.1958 294.885 95.5438V95.5438Z" fill="#E8C9C5"/>
<path d="M280.968 124.087C280.968 124.087 302.816 159.977 252.222 172.93C252.222 172.93 286.753 167.658 290.7 161.507C294.647 155.356 298.679 126.8 280.968 124.087Z" fill="#8B66D3"/>
</g>
<defs>
<linearGradient id="paint0_linear_6_416" x1="19.5701" y1="148.891" x2="36.4026" y2="136.368" gradientUnits="userSpaceOnUse">
<stop stop-color="#FC907E"/>
<stop offset="0.99" stop-color="#9F6EED"/>
</linearGradient>
<linearGradient id="paint1_linear_6_416" x1="3.59221" y1="88.7878" x2="28.0745" y2="80.1587" gradientUnits="userSpaceOnUse">
<stop stop-color="#FC907E"/>
<stop offset="0.99" stop-color="#9F6EED"/>
</linearGradient>
<clipPath id="clip0_6_416">
<rect width="502" height="382" fill="white"/>
</clipPath>
</defs>
</svg>
