<svg width="24" height="24" viewBox="0 0 24 24" fill="none" xmlns="http://www.w3.org/2000/svg">
<path d="M2.00009 17.7144C2.00009 17.9945 2.16367 18.2486 2.41894 18.3646L10.1756 22L10.2134 12.2283L2 8.4375L2.00009 17.7144Z" fill="url(#paint0_linear_3648_20419)"/>
<path d="M14.8836 10.4034L10.9274 12.2292L10.8896 22.0002L18.7239 18.3645C18.9791 18.2488 19.1427 17.9946 19.1427 17.7145V11.0753C18.6896 11.2109 18.2106 11.286 17.7142 11.286C16.6638 11.286 15.6893 10.9588 14.8837 10.4033L14.8836 10.4034Z" fill="url(#paint1_linear_3648_20419)"/>
<path d="M12.7139 6.28567C12.7139 5.88102 12.7675 5.4896 12.8587 5.11254L10.8665 4.20691C10.6789 4.12113 10.4633 4.12113 10.2756 4.20691C10.2756 4.20691 2.37978 7.80447 2.35938 7.81627L10.5711 11.6066L14.2687 9.90009C13.3132 8.98875 12.714 7.70705 12.714 6.28563L12.7139 6.28567Z" fill="url(#paint2_linear_3648_20419)"/>
<path d="M17.7144 2C15.3476 2 13.4287 3.91884 13.4287 6.28568C13.4287 8.65252 15.3476 10.5714 17.7144 10.5714C20.0812 10.5714 22.0001 8.65252 22.0001 6.28568C22.0001 3.91884 20.0812 2 17.7144 2ZM17.7144 5.92854C18.5019 5.92854 19.1429 6.56915 19.1429 7.3571C19.1429 8.02085 18.6859 8.57521 18.0715 8.73496V8.78567C18.0715 8.98305 17.9118 9.14281 17.7144 9.14281C17.517 9.14281 17.3572 8.98305 17.3572 8.78567V8.73496C16.7429 8.57521 16.2858 8.02085 16.2858 7.3571C16.2858 7.15972 16.4456 6.99996 16.643 6.99996C16.8404 6.99996 17.0001 7.15972 17.0001 7.3571C17.0001 7.75091 17.3203 8.07138 17.7144 8.07138C18.1085 8.07138 18.4287 7.75091 18.4287 7.3571C18.4287 6.96329 18.1085 6.64282 17.7144 6.64282C16.9269 6.64282 16.2858 6.00221 16.2858 5.21426C16.2858 4.55051 16.7429 3.99615 17.3572 3.83639V3.78569C17.3572 3.58831 17.517 3.42855 17.7144 3.42855C17.9118 3.42855 18.0715 3.58831 18.0715 3.78569V3.83639C18.6859 3.99615 19.1429 4.55051 19.1429 5.21426C19.1429 5.41164 18.9832 5.5714 18.7858 5.5714C18.5884 5.5714 18.4287 5.41164 18.4287 5.21426C18.4287 4.82045 18.1085 4.49998 17.7144 4.49998C17.3203 4.49998 17.0001 4.82045 17.0001 5.21426C17.0001 5.60807 17.3203 5.92854 17.7144 5.92854Z" fill="url(#paint3_linear_3648_20419)"/>
<defs>
<linearGradient id="paint0_linear_3648_20419" x1="1.91338" y1="8.29409" x2="13.9323" y2="15.5723" gradientUnits="userSpaceOnUse">
<stop stop-color="#FC907E"/>
<stop offset="0.99" stop-color="#9F6EED"/>
</linearGradient>
<linearGradient id="paint1_linear_3648_20419" x1="10.8026" y1="10.2807" x2="21.7596" y2="18.078" gradientUnits="userSpaceOnUse">
<stop stop-color="#FC907E"/>
<stop offset="0.99" stop-color="#9F6EED"/>
</linearGradient>
<linearGradient id="paint2_linear_3648_20419" x1="2.23377" y1="4.06365" x2="8.95146" y2="14.7816" gradientUnits="userSpaceOnUse">
<stop stop-color="#FC907E"/>
<stop offset="0.99" stop-color="#9F6EED"/>
</linearGradient>
<linearGradient id="paint3_linear_3648_20419" x1="13.3383" y1="1.90936" x2="21.9099" y2="10.4805" gradientUnits="userSpaceOnUse">
<stop stop-color="#FC907E"/>
<stop offset="0.99" stop-color="#9F6EED"/>
</linearGradient>
</defs>
</svg>
