<svg width="24" height="24" viewBox="0 0 24 24" fill="none" xmlns="http://www.w3.org/2000/svg">
<path d="M12.0194 10.5923H11.9981C11.5691 10.597 11.1722 10.7452 10.88 11.0094C10.5891 11.2726 10.4314 11.6245 10.4366 11.9998C10.4419 12.375 10.609 12.7231 10.9072 12.9803C11.2019 13.2341 11.5956 13.3732 12.0163 13.3732H12.0375C12.4665 13.3685 12.8634 13.2203 13.156 12.9557C13.4409 12.6985 13.598 12.3462 13.5993 11.9638C13.5933 11.5886 13.4258 11.2409 13.1284 10.9848C12.8341 10.7314 12.441 10.5923 12.0193 10.5923L12.0194 10.5923Z" fill="url(#paint0_linear_3648_20448)"/>
<path d="M16.8072 10.6558C16.6979 10.5513 16.5444 10.4961 16.4132 10.5027L15.6213 10.5128L15.6025 10.4695C15.5946 10.4478 15.586 10.4246 15.5757 10.4016L16.1139 9.85116C16.2232 9.73962 16.2818 9.59419 16.2801 9.44109C16.2785 9.2893 16.2156 9.14556 16.104 9.03645L14.8603 7.82567C14.6333 7.60482 14.2811 7.60894 14.0582 7.83578L13.5119 8.39464C13.4927 8.38547 13.4692 8.37499 13.4397 8.36282C13.4254 8.35815 13.4102 8.35272 13.3954 8.34654L13.3855 7.56086C13.3835 7.40738 13.319 7.25896 13.2087 7.1534C13.0995 7.04859 12.9472 6.99544 12.8147 7.00031L11.0731 7.02164C10.9184 7.0237 10.7693 7.08996 10.6639 7.2045C10.5613 7.31511 10.5092 7.45811 10.5162 7.59698L10.5261 8.38099L10.483 8.39989C10.4588 8.40831 10.4334 8.41842 10.4075 8.43002L9.8514 7.88874C9.62399 7.66621 9.27143 7.67107 9.04931 7.89848L7.83969 9.13599C7.72608 9.24117 7.66194 9.3851 7.65993 9.54063C7.65791 9.69373 7.71948 9.84215 7.82815 9.94808L8.38302 10.4884C8.37679 10.5013 8.37074 10.5144 8.36451 10.5273C8.35461 10.5496 8.34435 10.5739 8.33409 10.5994L7.55714 10.6187C7.40284 10.6207 7.25331 10.687 7.14831 10.801C7.0457 10.9121 6.99365 11.0549 7.00062 11.1934L7.02188 12.9309C7.02389 13.0844 7.0884 13.2331 7.19926 13.3389C7.30847 13.4433 7.46112 13.4991 7.59287 13.4914L8.38507 13.4817L8.40321 13.5236C8.41109 13.5459 8.42007 13.5689 8.4307 13.5929L7.89248 14.1433C7.78327 14.2549 7.72371 14.4003 7.72591 14.5528C7.72792 14.705 7.79078 14.8487 7.90237 14.9578L9.15196 16.1744C9.37937 16.3953 9.73155 16.3915 9.95405 16.1643L10.5 15.6054C10.5159 15.6129 10.5315 15.6206 10.5467 15.6271C10.5679 15.6369 10.5918 15.6468 10.6165 15.6569L10.6264 16.4383C10.6281 16.5918 10.692 16.7402 10.8025 16.8458C10.9055 16.9448 11.0426 17 11.174 17C11.1818 17 11.1895 17 11.1974 16.9996L12.939 16.9783C13.0933 16.9762 13.2428 16.9096 13.3482 16.7954C13.4508 16.6843 13.5029 16.5415 13.4959 16.403L13.486 15.6189L13.5287 15.6004C13.5532 15.592 13.5784 15.5819 13.6051 15.5703L14.1612 16.1119C14.3887 16.3334 14.7412 16.3287 14.9633 16.1018L16.1825 14.8546C16.192 14.8449 16.2006 14.8349 16.2079 14.8239C16.3919 14.5694 16.3718 14.2349 16.1603 14.0286H16.1599L15.6041 13.4877C15.6124 13.4702 15.6217 13.4496 15.6325 13.4228C15.6375 13.4086 15.6428 13.3938 15.649 13.3792L16.4429 13.3695C16.5972 13.3674 16.7467 13.3011 16.8517 13.1872C16.9543 13.076 17.0063 12.9332 16.9994 12.7956L16.9838 11.0633C16.982 10.9098 16.9175 10.7614 16.8072 10.6558L16.8072 10.6558ZM14.0491 11.9603C14.0483 12.515 13.8442 13.0286 13.4744 13.4063C13.098 13.7908 12.5895 14.0062 12.0427 14.0135H12.0165C11.4796 14.0135 10.9767 13.811 10.597 13.4421C10.21 13.0651 9.99322 12.5559 9.9866 12.0069C9.98001 11.4578 10.184 10.9429 10.5613 10.5568C10.9373 10.1723 11.4455 9.95689 11.9926 9.95019H12.0194C12.5563 9.95019 13.0591 10.1527 13.4385 10.5216C13.8251 10.8976 14.0419 11.4074 14.0493 11.9568C14.0491 11.9579 14.0491 11.9592 14.0491 11.9603L14.0491 11.9603Z" fill="url(#paint1_linear_3648_20448)"/>
<path d="M11.5906 4.12536V5.98598H12.5252V4.11839C12.9731 3.95153 13.2883 3.55897 13.2883 3.10222C13.2883 2.49463 12.7304 2 12.0445 2C11.3589 2 10.8008 2.49414 10.8008 3.10222C10.8012 3.56719 11.1297 3.96392 11.5906 4.12536Z" fill="url(#paint2_linear_3648_20448)"/>
<path d="M4.49226 7.23453C4.40704 6.94759 4.20008 6.70831 3.90964 6.56046C3.31657 6.25815 2.55689 6.43933 2.2141 6.96312C2.04791 7.2169 2.00327 7.51325 2.08733 7.79707C2.17255 8.08402 2.37952 8.3233 2.66996 8.47115C2.86436 8.57047 3.07732 8.61741 3.28721 8.61741C3.55641 8.61741 3.82136 8.53992 4.03819 8.3954L5.91039 9.47599L6.41515 8.76876L4.5196 7.6744C4.54356 7.52936 4.53564 7.38048 4.49235 7.23456L4.49226 7.23453Z" fill="url(#paint3_linear_3648_20448)"/>
<path d="M12.4096 19.8743V18.0137H11.4751V19.8818C11.0271 20.0487 10.7119 20.4412 10.7119 20.898C10.7119 21.5056 11.2698 22.0002 11.9557 22.0002C12.6417 22.0002 13.1994 21.506 13.1994 20.898C13.1991 20.4321 12.8705 20.0357 12.4096 19.8743Z" fill="url(#paint4_linear_3648_20448)"/>
<path d="M21.3307 15.5277C20.8862 15.3013 20.348 15.3463 19.9619 15.6031L18.0897 14.5225L17.585 15.2297L19.4805 16.3241C19.4567 16.4691 19.4645 16.618 19.5078 16.7639C19.593 17.0508 19.7999 17.2901 20.0904 17.438C20.2852 17.5373 20.4974 17.5842 20.7072 17.5842C21.137 17.5842 21.5556 17.3872 21.786 17.0357C21.9522 16.7819 21.9968 16.4855 21.9127 16.2017C21.8281 15.9151 21.6207 15.6758 21.3307 15.5276L21.3307 15.5277Z" fill="url(#paint5_linear_3648_20448)"/>
<path d="M5.85165 14.4331L3.96788 15.5209C3.58351 15.2772 3.05884 15.237 2.62423 15.4587C2.33416 15.6066 2.12679 15.8462 2.0416 16.1328C1.95716 16.4166 2.00218 16.713 2.16837 16.9667C2.39872 17.3186 2.81729 17.5153 3.2467 17.5153C3.45715 17.5153 3.66953 17.468 3.86396 17.369C4.15403 17.2212 4.3614 16.9816 4.44659 16.695C4.49239 16.5409 4.49683 16.3838 4.46784 16.2312L6.35686 15.1409L5.85165 14.4331Z" fill="url(#paint6_linear_3648_20448)"/>
<path d="M21.832 7.03283C21.4882 6.50884 20.7282 6.32908 20.1365 6.63051C19.8464 6.77835 19.639 7.01799 19.5538 7.30459C19.508 7.45871 19.5036 7.61579 19.5326 7.76835L17.6436 8.85869L18.1483 9.56592L20.0313 8.47907C20.2439 8.61398 20.4988 8.68712 20.7585 8.68712C20.9689 8.68712 21.1813 8.63982 21.3761 8.54085C21.6661 8.39302 21.8735 8.15337 21.9587 7.86677C22.0428 7.58297 21.9977 7.28662 21.8319 7.03282L21.832 7.03283Z" fill="url(#paint7_linear_3648_20448)"/>
<defs>
<linearGradient id="paint0_linear_3648_20448" x1="10.4032" y1="10.5629" x2="13.1613" y2="13.6996" gradientUnits="userSpaceOnUse">
<stop stop-color="#FC907E"/>
<stop offset="0.99" stop-color="#9F6EED"/>
</linearGradient>
<linearGradient id="paint1_linear_3648_20448" x1="6.89454" y1="6.89426" x2="16.8948" y2="16.894" gradientUnits="userSpaceOnUse">
<stop stop-color="#FC907E"/>
<stop offset="0.99" stop-color="#9F6EED"/>
</linearGradient>
<linearGradient id="paint2_linear_3648_20448" x1="10.7745" y1="1.95785" x2="14.3551" y2="4.19226" gradientUnits="userSpaceOnUse">
<stop stop-color="#FC907E"/>
<stop offset="0.99" stop-color="#9F6EED"/>
</linearGradient>
<linearGradient id="paint3_linear_3648_20448" x1="1.99982" y1="6.38169" x2="4.87804" y2="10.4886" gradientUnits="userSpaceOnUse">
<stop stop-color="#FC907E"/>
<stop offset="0.99" stop-color="#9F6EED"/>
</linearGradient>
<linearGradient id="paint4_linear_3648_20448" x1="10.6857" y1="17.9715" x2="14.2665" y2="20.2058" gradientUnits="userSpaceOnUse">
<stop stop-color="#FC907E"/>
<stop offset="0.99" stop-color="#9F6EED"/>
</linearGradient>
<linearGradient id="paint5_linear_3648_20448" x1="17.5389" y1="14.4901" x2="20.4169" y2="18.5969" gradientUnits="userSpaceOnUse">
<stop stop-color="#FC907E"/>
<stop offset="0.99" stop-color="#9F6EED"/>
</linearGradient>
<linearGradient id="paint6_linear_3648_20448" x1="1.95405" y1="14.4005" x2="4.86057" y2="18.5088" gradientUnits="userSpaceOnUse">
<stop stop-color="#FC907E"/>
<stop offset="0.99" stop-color="#9F6EED"/>
</linearGradient>
<linearGradient id="paint7_linear_3648_20448" x1="17.5976" y1="6.45179" x2="20.5034" y2="10.5596" gradientUnits="userSpaceOnUse">
<stop stop-color="#FC907E"/>
<stop offset="0.99" stop-color="#9F6EED"/>
</linearGradient>
</defs>
</svg>
