<?xml version="1.0" encoding="utf-8"?>
<!-- Generator: Adobe Illustrator 27.1.1, SVG Export Plug-In . SVG Version: 6.00 Build 0)  -->
<svg version="1.1" id="Layer_1" xmlns="http://www.w3.org/2000/svg" xmlns:xlink="http://www.w3.org/1999/xlink" x="0px" y="0px"
	 viewBox="0 0 198.2 252" style="enable-background:new 0 0 198.2 252;" xml:space="preserve">
<style type="text/css">
	.st0{fill:none;stroke:url(#SVGID_1_);stroke-width:11;stroke-miterlimit:10;}
	.st1{fill:#BC7ACC;stroke:#BC7ACC;stroke-width:2;stroke-miterlimit:10;}
	.st2{fill:#DD84A4;stroke:#DD84A4;stroke-width:2;stroke-miterlimit:10;}
	.st3{fill:#DE85A6;stroke:#DD84A4;stroke-width:2;stroke-miterlimit:10;}
</style>
<linearGradient id="SVGID_1_" gradientUnits="userSpaceOnUse" x1="5.1517" y1="119.2725" x2="195.5717" y2="119.2725">
	<stop  offset="0" style="stop-color:#FC907E"/>
	<stop  offset="0.99" style="stop-color:#9F6EED"/>
</linearGradient>
<path class="st0" d="M100.4,41.4H20c-5.2,0-9.4,3.7-9.4,8.1V189c0,4.5,4.2,8.1,9.4,8.1h160.7c5.2,0,9.4-3.6,9.4-8.1V49.5
	c0-4.5-4.2-8.1-9.4-8.1L100.4,41.4L100.4,41.4z"/>
<path class="st1" d="M170.4,136.8v31.6c0,4.1-0.9,4.9-4.9,4.9c-4.8,0-9.6,0-14.3,0c-3,0-4.2-1.2-4.2-4.2c0-21.6,0-43.1,0-64.7
	c0-2.9,1.2-4.1,4.1-4.1c4.9-0.1,9.9,0,14.8,0c3.5,0,4.6,1,4.6,4.6C170.4,115.6,170.4,126.2,170.4,136.8L170.4,136.8L170.4,136.8z
	 M153.7,107v59.6h9.9V107H153.7z"/>
<path class="st2" d="M76.1,107.7c9.6-9.6,19.1-19.1,28.8-28.8c-2.1,0-4.1,0-6.1,0c-2.4-0.1-3.9-1.3-3.9-3.2s1.4-3.2,3.8-3.3
	c4.4,0,8.9,0,13.3,0c2.7,0,3.8,1.1,3.8,3.7c0.1,4.5,0.1,9.1,0,13.6c0,2.1-1,3.5-3.2,3.6c-2.3,0-3.2-1.4-3.3-3.5
	c-0.1-1.6,0-3.2,0-5.4c-1,0.9-1.7,1.5-2.3,2.1c-9.1,9.1-18.2,18.2-27.3,27.3c-2.8,2.8-4.1,2.8-7-0.1c-4.3-4.3-8.6-8.6-13.2-13.1
	c-5,5.1-10,10.1-15,15.1c-3.6,3.6-7.2,7.2-10.8,10.8c-1.8,1.8-3.8,2-5.2,0.6c-1.5-1.4-1.3-3.3,0.6-5.2c9.2-9.2,18.4-18.4,27.6-27.6
	c2.2-2.2,3.7-2.1,5.9,0.1C67.3,98.8,71.8,103.3,76.1,107.7L76.1,107.7L76.1,107.7z"/>
<path class="st2" d="M111.6,145.6v23c0,3.8-1,4.7-4.7,4.7c-4.9,0-9.7,0-14.6,0c-3,0-4.2-1.1-4.2-4.2c0-15.7,0-31.5,0-47.2
	c0-3.2,1.1-4.3,4.3-4.4c4.9-0.1,9.9,0,14.8,0c3.2,0,4.3,1.1,4.3,4.4C111.6,129.8,111.6,137.8,111.6,145.6L111.6,145.6L111.6,145.6z
	 M104.9,166.7v-42.4h-10v42.4L104.9,166.7L104.9,166.7z"/>
<path class="st3" d="M117.6,153.3c0-5.3,0-10.5,0-15.8c0-2.9,1.1-4.1,4-4.1c5.1-0.1,10.2-0.1,15.3,0c2.9,0,4,1.2,4,4.1
	c0,10.6,0,21.3,0,31.9c0,2.8-1.1,3.9-3.9,3.9c-5.2,0-10.4,0-15.6,0c-2.7,0-3.8-1.2-3.9-4C117.6,164,117.6,158.7,117.6,153.3
	L117.6,153.3L117.6,153.3z M124.4,140.1v26.6h10v-26.6H124.4z"/>
</svg>
