<svg width="502" height="382" viewBox="0 0 502 382" fill="none" xmlns="http://www.w3.org/2000/svg">
<path d="M276.346 174.186C276.149 172.476 275.363 169.766 275.708 168.142C276.138 166.124 277.413 166.031 279.335 165.114C282.957 163.387 286.575 161.652 290.19 159.908C297.42 156.421 304.637 152.901 311.839 149.349C326.401 142.167 340.905 134.853 355.351 127.407C363.878 123.012 372.475 118.536 381.701 116.278C390.927 114.02 400.983 114.149 409.473 118.709C423.265 126.116 430.183 144.289 428.389 160.728C427.181 171.799 422.239 182.737 413.67 188.966C407.453 193.485 399.785 195.255 392.268 195.362C384.751 195.468 377.292 194.015 369.889 192.567L276.355 174.271C276.352 174.243 276.349 174.214 276.346 174.186Z" fill="url(#paint0_linear_6_382)"/>
<path d="M391.451 178.143L391.534 172.769C389.235 172.631 386.963 172.19 384.779 171.456C383.993 171.186 383.34 170.627 382.952 169.892C382.563 169.157 382.469 168.303 382.688 167.501L382.743 167.3C382.86 166.866 383.066 166.461 383.348 166.11C383.629 165.759 383.981 165.47 384.379 165.262C384.778 165.053 385.215 164.929 385.664 164.897C386.112 164.865 386.563 164.926 386.987 165.077C388.95 165.794 391.017 166.183 393.107 166.229C396.332 166.279 398.557 165.068 398.592 162.805C398.626 160.656 396.836 159.27 392.671 157.791C386.649 155.661 382.563 152.768 382.648 147.28C382.725 142.302 386.293 138.452 392.364 137.358L392.447 131.983L397.992 132.069L397.915 137.047C399.657 137.135 401.383 137.412 403.065 137.872C403.892 138.109 404.592 138.663 405.013 139.413C405.434 140.163 405.542 141.049 405.314 141.878L405.314 141.878C405.199 142.301 405 142.697 404.728 143.042C404.456 143.387 404.118 143.673 403.733 143.884C403.349 144.096 402.925 144.227 402.489 144.271C402.052 144.315 401.611 144.271 401.192 144.141C399.585 143.642 397.915 143.378 396.233 143.359C392.555 143.303 391.343 144.868 391.319 146.452C391.29 148.319 393.251 149.538 398.032 151.422C404.728 153.903 407.395 157.056 407.317 162.148C407.239 167.183 403.608 171.427 397.085 172.458L396.996 178.229L391.451 178.143Z" fill="#312147"/>
<path d="M176.284 269.02C178.536 261.392 182.06 254.199 186.709 247.745C190.427 242.587 195.558 237.149 202.186 236.256C209.007 235.337 216.693 236.219 222.356 240.402C226.561 243.508 229.34 248.187 231.365 253.008C234.23 259.842 235.792 267.151 235.97 274.559C215.966 274.079 196.015 272.264 176.253 269.127L176.284 269.02Z" fill="#9F6EED"/>
<path d="M228.818 168.977C229.942 171.658 230.135 174.421 230.275 177.116C230.442 179.804 230.309 182.502 229.878 185.16C229.497 187.296 229.809 190.024 227.589 190.862C223.25 192.5 216.625 189.257 212.77 187.501C210.042 186.259 207.096 184.787 205.359 182.437C204.553 181.448 204.167 180.183 204.284 178.913C204.462 177.924 204.845 176.984 205.41 176.154C207.492 172.796 210.629 170.116 214.022 167.784C216.54 166.054 219.901 163.401 223.772 164.414C224.921 164.708 225.98 165.277 226.859 166.072C227.738 166.868 228.41 167.865 228.818 168.977Z" fill="#FFD9D2"/>
<path d="M227.149 173.167C227.293 173.141 227.437 173.11 227.58 173.074C229.768 172.523 231.707 170.376 231.132 168.042C230.544 165.656 228.318 163.985 226.007 163.442C223.536 162.861 220.944 163.332 218.49 163.981C213.494 165.302 208.559 167.457 204.986 171.192C202.468 173.824 200.671 177.537 201.531 181.076C201.92 182.47 202.646 183.747 203.646 184.794C204.645 185.841 205.887 186.625 207.262 187.077C209.395 187.809 211.957 187.726 213.676 186.268C214.847 185.19 215.564 183.707 215.681 182.12C215.786 181.44 215.754 180.745 215.587 180.077C215.42 179.409 215.121 178.781 214.709 178.23C214.157 177.58 213.378 177.122 212.946 176.387C212.711 176 212.607 175.548 212.648 175.097C212.69 174.646 212.874 174.221 213.176 173.883C213.336 173.727 213.526 173.607 213.735 173.528C213.943 173.45 214.166 173.415 214.389 173.426C214.611 173.438 214.829 173.495 215.029 173.595C215.229 173.694 215.405 173.834 215.549 174.005C216.208 172.833 217.033 171.539 218.357 171.308C219.365 171.133 220.349 171.641 221.278 172.07C223.113 172.919 225.174 173.519 227.149 173.167Z" fill="black"/>
<path d="M268.335 166.787C268.855 170.754 269.367 174.652 269.887 178.612C268.054 178.785 266.292 178.953 264.53 179.116C260.605 179.478 256.679 179.839 252.754 180.198C251.469 180.316 251.077 180.003 250.906 178.707C250.584 176.268 250.263 173.828 249.944 171.388C249.819 170.424 250.153 169.899 251.047 169.745C256.773 168.757 262.501 167.784 268.335 166.787Z" fill="#FF8C79"/>
<path d="M230.633 175.206L229.063 175.411C228.643 175.466 228.347 175.851 228.401 176.271L228.857 179.757C228.911 180.177 229.297 180.474 229.717 180.419L231.287 180.214C231.707 180.159 232.004 179.773 231.949 179.353L231.494 175.868C231.439 175.447 231.054 175.151 230.633 175.206Z" fill="#FF8C79"/>
<path d="M234.3 173.315L249.399 171.247L250.419 178.695L235.325 180.763C234.633 180.858 233.932 180.674 233.375 180.251C232.819 179.829 232.453 179.203 232.358 178.511L232.052 176.276C231.958 175.586 232.141 174.886 232.563 174.33C232.985 173.775 233.609 173.41 234.3 173.315Z" fill="#FF8C79"/>
<path d="M272.439 164.442L270.689 164.671C269.561 164.818 268.766 165.851 268.913 166.979L270.339 177.909C270.486 179.037 271.52 179.832 272.648 179.685L274.399 179.456C275.527 179.309 276.322 178.276 276.174 177.148L274.748 166.218C274.601 165.09 273.567 164.295 272.439 164.442Z" fill="#FF8C79"/>
<path d="M188.87 192.664C186.398 211.138 196.536 227.738 211.514 229.743C226.493 231.747 240.639 218.396 243.111 199.922L188.87 192.664Z" fill="#9F6EED"/>
<path d="M201.311 194.328L188.87 192.664C188.87 192.664 186.525 207.485 194.191 218.235C194.191 218.235 198.388 224.798 203.147 226.876C203.147 226.876 195.566 213.835 201.311 194.328Z" fill="#8E63D5"/>
<path d="M266.588 48.139C262.691 39.048 254.72 25.5203 241.8 25.5203C241.8 25.5203 237.938 -18.2989 196.898 8.90019C196.898 8.90019 162.167 -9.2387 159.479 31.1913C159.479 31.1913 145.26 38.2427 141.518 52.4618C137.777 66.6808 156.486 76.0647 173.699 66.1342C173.699 66.1342 188.666 85.8012 216.356 70.254C216.356 70.254 249.203 87.0436 264.587 66.093C266.452 63.5321 267.617 60.5296 267.968 57.3813C268.319 54.233 267.843 51.0476 266.588 48.139V48.139Z" fill="#ECE1FB"/>
<path d="M187.568 192.608C186.309 200.037 187.204 207.672 190.148 214.609C190.148 214.609 179.855 210.008 169.096 191.577C168.536 190.619 167.964 189.667 167.359 188.736L162.166 180.758L162.92 160.166C162.92 160.166 169.019 168.412 177.953 179.388C177.953 179.388 186.432 191.122 187.568 192.608Z" fill="#FFD9D2"/>
<path d="M158.935 309.218H160.023C162.489 309.218 164.488 307.219 164.488 304.753L164.488 47.6141C164.488 45.1481 162.489 43.1491 160.023 43.1491H158.935C156.469 43.1491 154.47 45.1481 154.47 47.6141L154.47 304.753C154.47 307.219 156.469 309.218 158.935 309.218Z" fill="#402D5F"/>
<path d="M164.861 149.608C161.125 157.834 157.261 165.357 156.361 167.676C155.299 170.408 154.698 173.297 154.58 176.226L154.47 177.231C152.156 173.883 150.276 170.254 148.874 166.433C146.664 160.291 158.415 139.727 158.415 139.727L164.861 149.608Z" fill="#FFD9D2"/>
<path d="M164.488 150.537C164.488 150.537 167.621 149.564 168.252 147.385C169.318 143.704 168.028 138.899 162.278 138.022C158.724 137.48 158.041 140.655 158.041 140.655" fill="#FFD9D2"/>
<path d="M244.359 200.341C249.364 200.612 265.896 204.202 269.849 200.943C272.618 196.686 251.529 180.579 251.529 180.579L266.074 179.298C266.074 179.298 284.18 189.984 291.33 201.653C296.302 209.769 274.085 215.81 274.085 215.81C262.913 218.061 248.401 219.428 236.901 218.75C241.357 212.075 243.151 207.288 244.359 200.341Z" fill="#FFD9D2"/>
<path d="M252.933 169.445C252.933 169.445 257.422 171.58 255.902 173.169C254.382 174.758 247.403 177.591 245.745 174.482L244.441 172.036C244.396 171.953 244.37 171.862 244.364 171.768C244.359 171.675 244.374 171.581 244.409 171.494C244.444 171.407 244.498 171.329 244.567 171.265C244.635 171.201 244.717 171.153 244.807 171.125C246.068 170.739 247.351 170.425 248.648 170.185C250.062 169.859 251.492 169.612 252.933 169.445V169.445Z" fill="#FFD9D2"/>
<path d="M237.409 257.089L78.6657 257.298C78.1633 257.302 77.6686 257.421 77.2198 257.647C76.771 257.873 76.3801 258.199 76.0773 258.599C75.7745 259 75.5679 259.465 75.4736 259.959C75.3792 260.452 75.3996 260.961 75.5331 261.445L101.302 356.769C101.486 357.461 101.893 358.072 102.46 358.51C103.027 358.947 103.723 359.185 104.439 359.187H211.361C212.076 359.185 212.77 358.948 213.337 358.512C213.903 358.076 214.311 357.466 214.496 356.776L240.548 261.244C240.683 260.758 240.704 260.248 240.61 259.754C240.516 259.259 240.309 258.792 240.005 258.39C239.701 257.989 239.309 257.662 238.859 257.436C238.409 257.211 237.912 257.092 237.409 257.089V257.089Z" fill="url(#paint1_linear_6_382)"/>
<path d="M74 270.593H242.083V253.025L74 253.025V270.593Z" fill="#FF7E69"/>
<path d="M126.305 369.629H186.805C188.262 369.629 189.442 368.448 189.442 366.991V361.825C189.442 360.369 188.262 359.188 186.805 359.188H126.305C124.848 359.188 123.667 360.369 123.667 361.825V366.991C123.667 368.448 124.848 369.629 126.305 369.629Z" fill="#FF7E69"/>
<path d="M144.307 382H171.776C172.857 382 173.733 381.124 173.733 380.043V376.73C173.733 375.65 172.857 374.773 171.776 374.773H144.307C143.226 374.773 142.349 375.65 142.349 376.73V380.043C142.349 381.124 143.226 382 144.307 382Z" fill="#FF7E69"/>
<path d="M161.655 376.672V365.817C161.655 364.87 160.887 364.103 159.941 364.103H156.142C155.196 364.103 154.428 364.87 154.428 365.817V376.672C154.428 377.619 155.196 378.386 156.142 378.386H159.941C160.887 378.386 161.655 377.619 161.655 376.672Z" fill="#FF7E69"/>
<path d="M163.298 103.202H76.6028C76.6028 103.202 68.5487 85.0139 93.6057 87.3661C93.6057 87.3661 115.083 54.1676 140.14 87.1562C140.14 87.1562 164.083 77.3113 163.298 103.202Z" fill="#ECE1FB"/>
<defs>
<linearGradient id="paint0_linear_6_382" x1="275.299" y1="158.791" x2="428.647" y2="153.974" gradientUnits="userSpaceOnUse">
<stop stop-color="#A87EEF"/>
<stop offset="1" stop-color="white" stop-opacity="0.5"/>
</linearGradient>
<linearGradient id="paint1_linear_6_382" x1="240.666" y1="308.138" x2="75.4165" y2="308.138" gradientUnits="userSpaceOnUse">
<stop stop-color="#FFCCC3"/>
<stop offset="1" stop-color="#FF7E69"/>
</linearGradient>
</defs>
</svg>
