<svg width="56" height="56" viewBox="0 0 56 56" fill="none" xmlns="http://www.w3.org/2000/svg">
<path d="M25.1334 5.7337L9.13347 17.7336C7.79062 18.7408 7 20.3216 7 22.0001V46C7 47.4142 7.56205 48.7709 8.56205 49.7714C9.56249 50.7714 10.9192 51.3334 12.3335 51.3334H44.3332C45.7475 51.3334 47.1042 50.7714 48.1047 49.7714C49.1046 48.7709 49.6667 47.4142 49.6667 46V22.0001C49.6667 20.3215 48.8761 18.7407 47.5332 17.7336L31.5333 5.7337C30.6101 5.04129 29.4874 4.66675 28.3333 4.66675C27.1793 4.66675 26.0566 5.04129 25.1334 5.7337ZM22.9999 48.666H17.6669C16.9593 48.666 16.2812 48.3852 15.7812 47.8852C15.2812 47.3852 15 46.7067 15 45.9995V40.6661C15 39.9589 15.2812 39.2808 15.7812 38.7808C16.2812 38.2804 16.9594 37.9996 17.6669 37.9996H23.0004H22.9999C23.7075 37.9996 24.3856 38.2804 24.8856 38.7808C25.3856 39.2808 25.6669 39.959 25.6669 40.6661V45.9995C25.6669 46.7066 25.3856 47.3852 24.8856 47.8852C24.3856 48.3852 23.7074 48.666 22.9999 48.666H22.9999ZM22.9999 32.6661H17.6669C16.9593 32.6661 16.2812 32.3853 15.7812 31.8853C15.2812 31.3853 15 30.7068 15 29.9996V24.6662C15 23.959 15.2812 23.2809 15.7812 22.7809C16.2812 22.2805 16.9594 21.9997 17.6669 21.9997H23.0004H22.9999C23.7075 21.9997 24.3856 22.2805 24.8856 22.7809C25.3856 23.2809 25.6669 23.9591 25.6669 24.6662V29.9996C25.6669 30.7067 25.3856 31.3853 24.8856 31.8853C24.3856 32.3853 23.7074 32.6661 22.9999 32.6661H22.9999ZM38.9998 48.666H33.6668C32.9592 48.666 32.2811 48.3852 31.7811 47.8852C31.2811 47.3852 30.9999 46.7067 30.9999 45.9995V40.6661C30.9999 39.9589 31.2811 39.2808 31.7811 38.7808C32.2811 38.2804 32.9593 37.9996 33.6668 37.9996H39.0003H38.9998C39.7074 37.9996 40.3855 38.2804 40.8855 38.7808C41.3855 39.2808 41.6667 39.959 41.6667 40.6661V45.9995C41.6667 46.7066 41.3855 47.3852 40.8855 47.8852C40.3855 48.3852 39.7073 48.666 38.9998 48.666H38.9998Z" fill="url(#paint0_linear_3646_19304)"/>
<defs>
<linearGradient id="paint0_linear_3646_19304" x1="6.55002" y1="4.17329" x2="53.031" y2="46.6679" gradientUnits="userSpaceOnUse">
<stop stop-color="#FC907E"/>
<stop offset="0.99" stop-color="#9F6EED"/>
</linearGradient>
</defs>
</svg>
